<svg width="662" height="523" viewBox="0 0 662 523" fill="none" xmlns="http://www.w3.org/2000/svg">
<path d="M661.999 0H28.2109V419.161H661.999V0Z" fill="url(#paint0_linear)"/>
<path d="M654.87 49.5227H33.7568V406.483H654.87V49.5227Z" fill="white"/>
<path d="M654.87 49.5227V8.71594H344.313H189.035H111.396H72.5764H53.1666H43.4617H38.6093H36.1831H33.7568V11.2664V13.8168V18.9176V29.1193V49.5227H654.87Z" fill="#F5F5F5"/>
<path d="M647.74 75.2747H42.4717V386.674H647.74V75.2747Z" fill="url(#paint1_linear)"/>
<path opacity="0.5" d="M122.884 80.8212H49.998V139.06H122.884V80.8212Z" fill="#F5F5F5"/>
<path d="M196.561 80.8212H123.676V139.06H196.561V80.8212Z" fill="white"/>
<path opacity="0.2" d="M270.239 80.8212H197.354V139.06H270.239V80.8212Z" fill="#F5F5F5"/>
<path d="M343.918 80.8212H271.032V139.06H343.918V80.8212Z" fill="white"/>
<path d="M417.595 80.8212H344.709V139.06H417.595V80.8212Z" fill="white"/>
<path opacity="0.5" d="M491.273 80.8212H418.388V139.06H491.273V80.8212Z" fill="#F5F5F5"/>
<path d="M564.951 80.8212H492.065V139.06H564.951V80.8212Z" fill="white"/>
<path opacity="0.2" d="M638.629 80.8212H565.743V139.06H638.629V80.8212Z" fill="#F5F5F5"/>
<path opacity="0.2" d="M122.884 140.249H49.998V198.487H122.884V140.249Z" fill="#F5F5F5"/>
<path opacity="0.2" d="M196.561 140.249H123.676V198.487H196.561V140.249Z" fill="#F5F5F5"/>
<path d="M270.239 140.249H197.354V198.487H270.239V140.249Z" fill="white"/>
<path opacity="0.5" d="M343.918 140.249H271.032V198.487H343.918V140.249Z" fill="#F5F5F5"/>
<path d="M417.595 140.249H344.709V198.487H417.595V140.249Z" fill="white"/>
<path opacity="0.2" d="M491.273 140.249H418.388V198.487H491.273V140.249Z" fill="#F5F5F5"/>
<path opacity="0.5" d="M564.951 140.249H492.065V198.487H564.951V140.249Z" fill="#F5F5F5"/>
<path d="M638.629 140.249H565.743V198.487H638.629V140.249Z" fill="white"/>
<path d="M122.884 198.883H49.998V257.122H122.884V198.883Z" fill="white"/>
<path d="M196.561 198.883H123.676V257.122H196.561V198.883Z" fill="white"/>
<path opacity="0.2" d="M270.239 198.883H197.354V257.122H270.239V198.883Z" fill="#F5F5F5"/>
<path d="M343.918 198.883H271.032V257.122H343.918V198.883Z" fill="white"/>
<path opacity="0.2" d="M417.595 198.883H344.709V257.122H417.595V198.883Z" fill="#F5F5F5"/>
<path d="M491.273 198.883H418.388V257.122H491.273V198.883Z" fill="white"/>
<path d="M564.951 198.883H492.065V257.122H564.951V198.883Z" fill="white"/>
<path opacity="0.2" d="M638.629 198.883H565.743V257.122H638.629V198.883Z" fill="#F5F5F5"/>
<path d="M122.884 257.518H49.998V315.757H122.884V257.518Z" fill="white"/>
<path opacity="0.5" d="M196.561 257.518H123.676V315.757H196.561V257.518Z" fill="#F5F5F5"/>
<path opacity="0.5" d="M270.239 257.518H197.354V315.757H270.239V257.518Z" fill="#F5F5F5"/>
<path d="M343.918 257.518H271.032V315.757H343.918V257.518Z" fill="white"/>
<path d="M417.595 257.518H344.709V315.757H417.595V257.518Z" fill="white"/>
<path opacity="0.5" d="M491.273 257.518H418.388V315.757H491.273V257.518Z" fill="#F5F5F5"/>
<path d="M564.951 257.518H492.065V315.757H564.951V257.518Z" fill="white"/>
<path opacity="0.5" d="M638.629 257.518H565.743V315.757H638.629V257.518Z" fill="#F5F5F5"/>
<path opacity="0.5" d="M122.884 316.946H49.998V375.184H122.884V316.946Z" fill="#F5F5F5"/>
<path opacity="0.2" d="M196.561 316.946H123.676V375.184H196.561V316.946Z" fill="#F5F5F5"/>
<path d="M270.239 316.946H197.354V375.184H270.239V316.946Z" fill="white"/>
<path opacity="0.5" d="M343.918 316.946H271.032V375.184H343.918V316.946Z" fill="#F5F5F5"/>
<path opacity="0.2" d="M417.595 316.946H344.709V375.184H417.595V316.946Z" fill="#F5F5F5"/>
<path d="M491.273 316.946H418.388V375.184H491.273V316.946Z" fill="white"/>
<path opacity="0.2" d="M564.951 316.946H492.065V375.184H564.951V316.946Z" fill="#F5F5F5"/>
<path d="M638.629 316.946H565.743V375.184H638.629V316.946Z" fill="white"/>
<path d="M78.1221 204.43H55.9395V226.616H78.1221V204.43Z" fill="#04BEFE"/>
<path d="M298.364 87.16H276.182V109.346H298.364V87.16Z" fill="#04BEFE"/>
<path d="M295.987 204.43H273.805V226.616H295.987V204.43Z" fill="#04BEFE"/>
<path d="M371.249 260.688H349.066V282.874H371.249V260.688Z" fill="#04BEFE"/>
<path d="M517.813 204.43H495.631V226.616H517.813V204.43Z" fill="#04BEFE"/>
<path d="M135.908 523C210.968 523 271.816 462.142 271.816 387.07C271.816 311.998 210.968 251.14 135.908 251.14C60.8481 251.14 0 311.998 0 387.07C0 462.142 60.8481 523 135.908 523Z" fill="url(#paint2_linear)"/>
<path d="M135.908 519.331C208.942 519.331 268.148 460.116 268.148 387.07C268.148 314.024 208.942 254.808 135.908 254.808C62.8738 254.808 3.66797 314.024 3.66797 387.07C3.66797 460.116 62.8738 519.331 135.908 519.331Z" fill="#F5F5F5"/>
<path d="M135.908 494.53C195.247 494.53 243.351 446.419 243.351 387.07C243.351 327.721 195.247 279.609 135.908 279.609C76.5687 279.609 28.4648 327.721 28.4648 387.07C28.4648 446.419 76.5687 494.53 135.908 494.53Z" fill="white"/>
<path d="M135.908 393.496C139.457 393.496 142.333 390.619 142.333 387.07C142.333 383.521 139.457 380.644 135.908 380.644C132.36 380.644 129.483 383.521 129.483 387.07C129.483 390.619 132.36 393.496 135.908 393.496Z" fill="url(#paint3_linear)"/>
<path d="M138.332 387.862L134.371 386.531L170.022 303.079L173.983 304.941L138.332 387.862Z" fill="url(#paint4_linear)"/>
<path d="M170.445 303.846L135.55 386.508L138.09 387.58L172.985 304.919L170.445 303.846Z" fill="#0B263D"/>
<path d="M158.138 431.442L135.163 388.655L138.332 387.07L162.099 429.065L158.138 431.442Z" fill="url(#paint5_linear)"/>
<path d="M138.025 387.357L135.603 388.673L158.559 430.926L160.982 429.61L138.025 387.357Z" fill="#0B263D"/>
<path d="M236.007 392.585C237.53 392.585 238.764 391.35 238.764 389.827C238.764 388.304 237.53 387.07 236.007 387.07C234.484 387.07 233.25 388.304 233.25 389.827C233.25 391.35 234.484 392.585 236.007 392.585Z" fill="#F5F5F5"/>
<path d="M52.7877 339.351C53.7766 337.638 53.1897 335.448 51.477 334.459C49.7643 333.47 47.5742 334.057 46.5854 335.77C45.5965 337.483 46.1834 339.673 47.8961 340.662C49.6088 341.651 51.7989 341.064 52.7877 339.351Z" fill="url(#paint6_linear)"/>
<path d="M52.393 442.608C54.1057 441.619 54.6925 439.429 53.7037 437.716C52.7148 436.003 50.5248 435.416 48.8121 436.405C47.0994 437.394 46.5125 439.584 47.5014 441.297C48.4902 443.01 50.6803 443.597 52.393 442.608Z" fill="url(#paint7_linear)"/>
<path d="M35.8172 393.409C37.7949 393.409 39.3981 391.805 39.3981 389.827C39.3981 387.849 37.7949 386.246 35.8172 386.246C33.8396 386.246 32.2363 387.849 32.2363 389.827C32.2363 391.805 33.8396 393.409 35.8172 393.409Z" fill="url(#paint8_linear)"/>
<path d="M88.02 303.925C89.7327 302.936 90.3195 300.745 89.3307 299.032C88.3418 297.319 86.1518 296.732 84.4391 297.721C82.7263 298.71 82.1395 300.901 83.1284 302.614C84.1172 304.327 86.3072 304.914 88.02 303.925Z" fill="url(#paint9_linear)"/>
<path d="M137.61 291.071C139.323 290.082 139.909 287.891 138.921 286.178C137.932 284.466 135.742 283.879 134.029 284.868C132.316 285.857 131.729 288.047 132.718 289.76C133.707 291.473 135.897 292.06 137.61 291.071Z" fill="url(#paint10_linear)"/>
<path d="M187.198 303.928C188.91 302.939 189.497 300.749 188.508 299.036C187.52 297.323 185.329 296.736 183.617 297.725C181.904 298.714 181.317 300.905 182.306 302.618C183.295 304.331 185.485 304.917 187.198 303.928Z" fill="url(#paint11_linear)"/>
<path d="M223.929 340.668C225.642 339.679 226.229 337.489 225.24 335.776C224.251 334.063 222.061 333.476 220.348 334.465C218.635 335.454 218.049 337.645 219.038 339.358C220.026 341.071 222.216 341.657 223.929 340.668Z" fill="url(#paint12_linear)"/>
<path d="M223.014 442.616C224.727 441.627 225.314 439.437 224.325 437.724C223.336 436.011 221.146 435.424 219.433 436.413C217.72 437.402 217.134 439.592 218.122 441.305C219.111 443.018 221.301 443.605 223.014 442.616Z" fill="url(#paint13_linear)"/>
<path d="M185.361 478.434C187.074 477.445 187.66 475.254 186.671 473.541C185.683 471.828 183.493 471.241 181.78 472.23C180.067 473.219 179.48 475.41 180.469 477.123C181.458 478.836 183.648 479.423 185.361 478.434Z" fill="url(#paint14_linear)"/>
<path d="M137.606 489.46C139.319 488.471 139.905 486.281 138.917 484.568C137.928 482.855 135.738 482.268 134.025 483.257C132.312 484.246 131.725 486.437 132.714 488.15C133.703 489.863 135.893 490.449 137.606 489.46Z" fill="url(#paint15_linear)"/>
<path d="M89.8569 478.438C91.5696 477.449 92.1564 475.258 91.1676 473.545C90.1787 471.832 87.9887 471.245 86.2759 472.234C84.5632 473.223 83.9764 475.414 84.9653 477.127C85.9541 478.84 88.1441 479.427 89.8569 478.438Z" fill="url(#paint16_linear)"/>
<path d="M135.908 290.631C137.431 290.631 138.665 289.397 138.665 287.874C138.665 286.351 137.431 285.116 135.908 285.116C134.386 285.116 133.151 286.351 133.151 287.874C133.151 289.397 134.386 290.631 135.908 290.631Z" fill="#04BEFE"/>
<path d="M187.885 302.54C188.646 301.221 188.195 299.534 186.876 298.773C185.557 298.011 183.871 298.463 183.11 299.782C182.349 301.101 182.8 302.787 184.119 303.549C185.438 304.31 187.124 303.858 187.885 302.54Z" fill="#04BEFE"/>
<path d="M223.175 339.861C224.494 339.099 224.945 337.413 224.184 336.094C223.423 334.775 221.737 334.323 220.418 335.085C219.099 335.846 218.647 337.533 219.409 338.851C220.17 340.17 221.856 340.622 223.175 339.861Z" fill="#04BEFE"/>
<path d="M223.61 440.887C224.371 439.568 223.919 437.882 222.601 437.121C221.282 436.359 219.596 436.811 218.835 438.13C218.073 439.449 218.525 441.135 219.844 441.897C221.162 442.658 222.848 442.206 223.61 440.887Z" fill="#04BEFE"/>
<path d="M184.949 477.532C186.268 476.77 186.72 475.084 185.958 473.765C185.197 472.446 183.511 471.994 182.192 472.756C180.874 473.517 180.422 475.203 181.183 476.522C181.944 477.841 183.631 478.293 184.949 477.532Z" fill="#04BEFE"/>
<path d="M87.6954 303.557C89.014 302.796 89.4658 301.11 88.7045 299.791C87.9432 298.472 86.257 298.02 84.9384 298.781C83.6197 299.543 83.168 301.229 83.9293 302.548C84.6906 303.867 86.3767 304.319 87.6954 303.557Z" fill="#04BEFE"/>
<path d="M52.4105 338.853C53.1718 337.534 52.7201 335.848 51.4014 335.086C50.0828 334.325 48.3966 334.777 47.6353 336.096C46.874 337.414 47.3258 339.101 48.6444 339.862C49.9631 340.624 51.6492 340.172 52.4105 338.853Z" fill="#04BEFE"/>
<path d="M237.71 393.023C239.423 392.034 240.01 389.843 239.021 388.13C238.032 386.417 235.842 385.83 234.129 386.819C232.417 387.808 231.83 389.999 232.819 391.712C233.808 393.425 235.998 394.012 237.71 393.023Z" fill="#04BEFE"/>
<path d="M51.9805 441.895C53.2992 441.133 53.751 439.447 52.9896 438.128C52.2283 436.809 50.5422 436.357 49.2236 437.119C47.9049 437.88 47.4531 439.567 48.2144 440.886C48.9757 442.204 50.6619 442.656 51.9805 441.895Z" fill="#04BEFE"/>
<path d="M90.6332 476.526C91.3945 475.207 90.9427 473.52 89.6241 472.759C88.3054 471.997 86.6193 472.449 85.858 473.768C85.0967 475.087 85.5484 476.774 86.8671 477.535C88.1857 478.296 89.8719 477.845 90.6332 476.526Z" fill="#04BEFE"/>
<path d="M35.8165 392.585C37.3392 392.585 38.5735 391.35 38.5735 389.827C38.5735 388.304 37.3392 387.07 35.8165 387.07C34.2939 387.07 33.0596 388.304 33.0596 389.827C33.0596 391.35 34.2939 392.585 35.8165 392.585Z" fill="#04BEFE"/>
<path d="M135.908 489.016C137.431 489.016 138.665 487.781 138.665 486.258C138.665 484.735 137.431 483.501 135.908 483.501C134.386 483.501 133.151 484.735 133.151 486.258C133.151 487.781 134.386 489.016 135.908 489.016Z" fill="#04BEFE"/>
<path opacity="0.2" d="M33.9793 397.172C33.9863 373.493 41.8124 350.478 56.2416 331.704C70.6709 312.93 90.8954 299.447 113.773 293.351C136.651 287.255 160.902 288.886 182.758 297.991C204.614 307.097 222.851 323.166 234.637 343.704C228.853 330.268 220.388 318.154 209.76 308.104C199.132 298.054 186.565 290.28 172.828 285.258C159.091 280.235 144.473 278.071 129.871 278.896C115.268 279.722 100.987 283.52 87.9037 290.059C74.8201 296.598 63.2087 305.739 53.7808 316.922C44.3529 328.106 37.3069 341.097 33.0744 355.1C28.8418 369.102 27.5119 383.821 29.166 398.356C30.82 412.891 35.4233 426.934 42.6938 439.627C36.9264 426.218 33.9608 411.77 33.9793 397.172Z" fill="#F5F5F5"/>
<path d="M135.908 391.666C138.446 391.666 140.503 389.608 140.503 387.07C140.503 384.532 138.446 382.474 135.908 382.474C133.371 382.474 131.313 384.532 131.313 387.07C131.313 389.608 133.371 391.666 135.908 391.666Z" fill="#04BEFE"/>
<defs>
<linearGradient id="paint0_linear" x1="345.105" y1="419.161" x2="345.105" y2="0" gradientUnits="userSpaceOnUse">
<stop stop-color="#808080" stop-opacity="0.25"/>
<stop offset="0.54" stop-color="#808080" stop-opacity="0.12"/>
<stop offset="1" stop-color="#808080" stop-opacity="0.1"/>
</linearGradient>
<linearGradient id="paint1_linear" x1="263703" y1="152038" x2="263703" y2="29658.2" gradientUnits="userSpaceOnUse">
<stop stop-color="#808080" stop-opacity="0.25"/>
<stop offset="0.54" stop-color="#808080" stop-opacity="0.12"/>
<stop offset="1" stop-color="#808080" stop-opacity="0.1"/>
</linearGradient>
<linearGradient id="paint2_linear" x1="46630" y1="179692" x2="46630" y2="86417.2" gradientUnits="userSpaceOnUse">
<stop stop-color="#808080" stop-opacity="0.25"/>
<stop offset="0.54" stop-color="#808080" stop-opacity="0.12"/>
<stop offset="1" stop-color="#808080" stop-opacity="0.1"/>
</linearGradient>
<linearGradient id="paint3_linear" x1="2333.91" y1="6763.15" x2="2333.91" y2="6554.56" gradientUnits="userSpaceOnUse">
<stop stop-color="#808080" stop-opacity="0.25"/>
<stop offset="0.54" stop-color="#808080" stop-opacity="0.12"/>
<stop offset="1" stop-color="#808080" stop-opacity="0.1"/>
</linearGradient>
<linearGradient id="paint4_linear" x1="7843.22" y1="41804.3" x2="7843.22" y2="32732.6" gradientUnits="userSpaceOnUse">
<stop stop-color="#808080" stop-opacity="0.25"/>
<stop offset="0.54" stop-color="#808080" stop-opacity="0.12"/>
<stop offset="1" stop-color="#808080" stop-opacity="0.1"/>
</linearGradient>
<linearGradient id="paint5_linear" x1="5188.63" y1="24547.8" x2="5188.63" y2="22063" gradientUnits="userSpaceOnUse">
<stop stop-color="#808080" stop-opacity="0.25"/>
<stop offset="0.54" stop-color="#808080" stop-opacity="0.12"/>
<stop offset="1" stop-color="#808080" stop-opacity="0.1"/>
</linearGradient>
<linearGradient id="paint6_linear" x1="-2903.38" y1="6010.97" x2="-2847.37" y2="5978.63" gradientUnits="userSpaceOnUse">
<stop stop-color="#808080" stop-opacity="0.25"/>
<stop offset="0.54" stop-color="#808080" stop-opacity="0.12"/>
<stop offset="1" stop-color="#808080" stop-opacity="0.1"/>
</linearGradient>
<linearGradient id="paint7_linear" x1="1809.32" y1="5300.82" x2="1809.32" y2="5236.14" gradientUnits="userSpaceOnUse">
<stop stop-color="#808080" stop-opacity="0.25"/>
<stop offset="0.54" stop-color="#808080" stop-opacity="0.12"/>
<stop offset="1" stop-color="#808080" stop-opacity="0.1"/>
</linearGradient>
<linearGradient id="paint8_linear" x1="-560.47" y1="6130.71" x2="-528.091" y2="6074.64" gradientUnits="userSpaceOnUse">
<stop stop-color="#808080" stop-opacity="0.25"/>
<stop offset="0.54" stop-color="#808080" stop-opacity="0.12"/>
<stop offset="1" stop-color="#808080" stop-opacity="0.1"/>
</linearGradient>
<linearGradient id="paint9_linear" x1="-4892.38" y1="4628.16" x2="-4827.64" y2="4628.16" gradientUnits="userSpaceOnUse">
<stop stop-color="#808080" stop-opacity="0.25"/>
<stop offset="0.54" stop-color="#808080" stop-opacity="0.12"/>
<stop offset="1" stop-color="#808080" stop-opacity="0.1"/>
</linearGradient>
<linearGradient id="paint10_linear" x1="-4431.28" y1="4561.55" x2="-4366.54" y2="4561.55" gradientUnits="userSpaceOnUse">
<stop stop-color="#808080" stop-opacity="0.25"/>
<stop offset="0.54" stop-color="#808080" stop-opacity="0.12"/>
<stop offset="1" stop-color="#808080" stop-opacity="0.1"/>
</linearGradient>
<linearGradient id="paint11_linear" x1="-3995.78" y1="4727.39" x2="-3931.11" y2="4727.39" gradientUnits="userSpaceOnUse">
<stop stop-color="#808080" stop-opacity="0.25"/>
<stop offset="0.54" stop-color="#808080" stop-opacity="0.12"/>
<stop offset="1" stop-color="#808080" stop-opacity="0.1"/>
</linearGradient>
<linearGradient id="paint12_linear" x1="-3700.48" y1="5096.26" x2="-3635.74" y2="5096.26" gradientUnits="userSpaceOnUse">
<stop stop-color="#808080" stop-opacity="0.25"/>
<stop offset="0.54" stop-color="#808080" stop-opacity="0.12"/>
<stop offset="1" stop-color="#808080" stop-opacity="0.1"/>
</linearGradient>
<linearGradient id="paint13_linear" x1="-3810.76" y1="6016.88" x2="-3746.01" y2="6016.88" gradientUnits="userSpaceOnUse">
<stop stop-color="#808080" stop-opacity="0.25"/>
<stop offset="0.54" stop-color="#808080" stop-opacity="0.12"/>
<stop offset="1" stop-color="#808080" stop-opacity="0.1"/>
</linearGradient>
<linearGradient id="paint14_linear" x1="-4186.87" y1="6303.1" x2="-4122.2" y2="6303.1" gradientUnits="userSpaceOnUse">
<stop stop-color="#808080" stop-opacity="0.25"/>
<stop offset="0.54" stop-color="#808080" stop-opacity="0.12"/>
<stop offset="1" stop-color="#808080" stop-opacity="0.1"/>
</linearGradient>
<linearGradient id="paint15_linear" x1="-4629.63" y1="6355" x2="-4564.88" y2="6355" gradientUnits="userSpaceOnUse">
<stop stop-color="#808080" stop-opacity="0.25"/>
<stop offset="0.54" stop-color="#808080" stop-opacity="0.12"/>
<stop offset="1" stop-color="#808080" stop-opacity="0.1"/>
</linearGradient>
<linearGradient id="paint16_linear" x1="-5050.24" y1="6207.61" x2="-4985.57" y2="6207.6" gradientUnits="userSpaceOnUse">
<stop stop-color="#808080" stop-opacity="0.25"/>
<stop offset="0.54" stop-color="#808080" stop-opacity="0.12"/>
<stop offset="1" stop-color="#808080" stop-opacity="0.1"/>
</linearGradient>
</defs>
</svg>
