<svg width="51" height="51" viewBox="0 0 51 51" fill="none" xmlns="http://www.w3.org/2000/svg">
<path d="M44.625 16.9999C45.7522 16.9999 46.8332 17.4477 47.6302 18.2447C48.4272 19.0417 48.875 20.1227 48.875 21.2499V29.7499C48.875 30.8771 48.4272 31.9581 47.6302 32.7551C46.8332 33.5521 45.7522 33.9999 44.625 33.9999H42.3682C41.8502 38.1082 39.8507 41.8862 36.745 44.6249C33.6392 47.3636 29.6408 48.8748 25.5 48.8749V44.6249C28.8815 44.6249 32.1245 43.2816 34.5156 40.8905C36.9067 38.4994 38.25 35.2564 38.25 31.8749V19.1249C38.25 15.7434 36.9067 12.5004 34.5156 10.1093C32.1245 7.71821 28.8815 6.37491 25.5 6.37491C22.1185 6.37491 18.8755 7.71821 16.4844 10.1093C14.0933 12.5004 12.75 15.7434 12.75 19.1249V33.9999H6.375C5.24783 33.9999 4.16683 33.5521 3.3698 32.7551C2.57277 31.9581 2.125 30.8771 2.125 29.7499V21.2499C2.125 20.1227 2.57277 19.0417 3.3698 18.2447C4.16683 17.4477 5.24783 16.9999 6.375 16.9999H8.63175C9.15032 12.8921 11.15 9.11461 14.2557 6.37635C17.3614 3.63808 21.3596 2.1272 25.5 2.1272C29.6404 2.1272 33.6386 3.63808 36.7443 6.37635C39.85 9.11461 41.8497 12.8921 42.3682 16.9999H44.625ZM16.49 33.543L18.7425 29.939C20.7678 31.2077 23.1102 31.8788 25.5 31.8749C27.8898 31.8788 30.2322 31.2077 32.2575 29.939L34.51 33.543C31.8097 35.2348 28.6865 36.1298 25.5 36.1249C22.3135 36.1298 19.1903 35.2348 16.49 33.543Z" fill="#F5F5F5"/>
</svg>
