<svg width="56" height="56" viewBox="0 0 56 56" fill="none" xmlns="http://www.w3.org/2000/svg">
<path d="M28.0003 4.66675C15.1343 4.66675 4.66699 15.1341 4.66699 28.0001C4.66699 40.8661 15.1343 51.3334 28.0003 51.3334C40.8663 51.3334 51.3337 40.8661 51.3337 28.0001C51.3337 15.1341 40.8663 4.66675 28.0003 4.66675ZM28.0003 46.6668C17.708 46.6668 9.33366 38.2924 9.33366 28.0001C9.33366 17.7077 17.708 9.33342 28.0003 9.33342C38.2927 9.33342 46.667 17.7077 46.667 28.0001C46.667 38.2924 38.2927 46.6668 28.0003 46.6668Z" fill="#F5F5F5"/>
<path d="M28.0003 25.6667C23.3337 25.6667 23.3337 24.2061 23.3337 23.3334C23.3337 22.2041 24.9693 21.0001 28.0003 21.0001C30.7653 21.0001 31.2343 22.4887 31.267 23.3754L33.6003 23.3334H35.9337C35.9337 20.9394 34.3797 17.5724 30.3337 16.6157V14.0281H25.667V16.5317C21.068 17.3041 18.667 20.3281 18.667 23.3334C18.667 25.9467 19.8803 30.3334 28.0003 30.3334C32.667 30.3334 32.667 31.9107 32.667 32.6667C32.667 33.6351 31.2203 35.0001 28.0003 35.0001C23.7047 35.0001 23.3593 33.0004 23.3337 32.6667H18.667C18.667 34.8087 20.2093 38.6237 25.667 39.4801V42.0001H30.3337V39.4684C34.9327 38.6961 37.3337 35.6721 37.3337 32.6667C37.3337 30.0534 36.1203 25.6667 28.0003 25.6667Z" fill="#F5F5F5"/>
</svg>
