<svg width="56" height="57" viewBox="0 0 56 57" fill="none" xmlns="http://www.w3.org/2000/svg">
<path d="M16.3337 45.2679C18.911 45.2679 21.0003 43.1786 21.0003 40.6012C21.0003 38.0239 18.911 35.9346 16.3337 35.9346C13.7563 35.9346 11.667 38.0239 11.667 40.6012C11.667 43.1786 13.7563 45.2679 16.3337 45.2679Z" stroke="#F5F5F5" stroke-width="3" stroke-linecap="round" stroke-linejoin="round"/>
<path d="M39.6667 45.2679C42.244 45.2679 44.3333 43.1786 44.3333 40.6012C44.3333 38.0239 42.244 35.9346 39.6667 35.9346C37.0893 35.9346 35 38.0239 35 40.6012C35 43.1786 37.0893 45.2679 39.6667 45.2679Z" stroke="#F5F5F5" stroke-width="3" stroke-linecap="round" stroke-linejoin="round"/>
<path d="M30.3337 14.9347H42.0003L49.0003 26.6013M11.667 40.6013H7.00033V31.268L11.667 40.6013ZM4.66699 12.6013H30.3337V40.6013L4.66699 12.6013ZM21.0003 40.6013H35.0003H21.0003ZM44.3337 40.6013H49.0003V26.6013H30.3337L44.3337 40.6013Z" stroke="#F5F5F5" stroke-width="3" stroke-linecap="round" stroke-linejoin="round"/>
<path d="M7 21.9346H16.3333" stroke="#F5F5F5" stroke-width="3" stroke-linecap="round" stroke-linejoin="round"/>
</svg>
